HIERARCHY
ROOT Hips
{
	OFFSET 0.00000 0.00000 0.00000
	CHANNELS 6 Xposition Yposition Zposition Yrotation Zrotation Xrotation 
	JOINT Lumbar
	{
		OFFSET 0 0 0
		CHANNELS 3 Zrotation Xrotation Yrotation
		JOINT Neck
		{
			OFFSET 0.00 0.2701 0.00
			CHANNELS 3 Zrotation Xrotation Yrotation
			End Site
			{
				OFFSET 0.00 0.1379 0.00
			}
		}
		JOINT RightShoulder
		{
			OFFSET 0.0119 0.2289 0.1181
			CHANNELS 3 Zrotation Xrotation Yrotation
			JOINT RightElbow
			{
				OFFSET 0.00 -0.1475 0.00
				CHANNELS 2 Zrotation Yrotation
				JOINT RightWrist
				{
					OFFSET 0.00 -0.1605 0.00
					CHANNELS 2 Zrotation Xrotation
					End Site
					{
						OFFSET 0.0040 -0.1068 0.0006
					}
				}
			}
		}
		JOINT LeftShoulder
		{
			OFFSET 0.0119 0.2289 -0.1181
			CHANNELS 3 Zrotation Xrotation Yrotation
			JOINT LeftElbow
			{
				OFFSET 0.00 -0.1475 0.00
				CHANNELS 2 Zrotation Yrotation
				JOINT LeftWrist
				{
					OFFSET 0.00 -0.1605 0.00
					CHANNELS 2 Zrotation Xrotation
					End Site
					{
						OFFSET 0.0040 -0.1068 -0.0006
					}
				}
			}
		}
	}
	JOINT RightHip
	{
		OFFSET 0.0316 -0.0424 0.0458
		CHANNELS 3 Zrotation Xrotation Yrotation
		JOINT RightKnee
		{
			OFFSET 0.00 -0.2438 0.00
			CHANNELS 1 Zrotation
			JOINT RightAnkle
			{
				OFFSET 0.00 -0.2449 0.00
				CHANNELS 3 Zrotation Xrotation Yrotation
				End Site
				{
					OFFSET 0.1237 -0.0542 0.0051
				}
			}
		}
	}
	JOINT LeftHip
	{
		OFFSET 0.0316 -0.0424 -0.0458
		CHANNELS 3 Zrotation Xrotation Yrotation
		JOINT LeftKnee
		{
			OFFSET 0.00 -0.2438 0.00
			CHANNELS 1 Zrotation
			JOINT LeftAnkle
			{
				OFFSET 0.00 -0.2449 0.00
				CHANNELS 3 Zrotation Xrotation Yrotation
				End Site
				{
					OFFSET 0.1237 -0.0542 -0.0051
				}
			}
		}
	}
}
MOTION
Frames: 33
Frame Time: 0.02
0.00285 0.00075 -0.00103 24.31713 -19.92878 -8.5518 42.8212 1.11607 -5.81904 -13.28395 -0.98617 -0.47106 -28.80543 -14.02118 0.48309 39.51779 92.24642 5.22005 0.9957 -23.20396 15.21167 -3.39311 43.1755 -163.67649 26.83661 -11.32539 35.29652 -3.36441 -3.94544 -21.84882 -10.13243 -5.54579 -3.79172 35.92679 9.34567 2.52669 -27.56706 -8.25247 4.59716 3.16534
0.00508 0.00105 0.00234 24.40771 -19.92188 -8.52466 42.85351 1.08721 -5.73944 -13.31022 -0.7304 -0.47201 -28.20385 -14.00706 0.71484 39.47612 92.14775 5.20645 0.98098 -22.92501 15.48599 -3.83024 43.59757 -157.10648 25.10133 -10.29937 35.17299 -3.0504 -4.44333 -21.83755 -9.99898 -5.51108 -3.76578 35.86739 9.73589 2.42148 -27.43065 -8.34662 4.5862 3.16414
0.0073 0.00135 0.00569 24.49832 -19.91477 -8.49758 42.88534 1.05836 -5.65989 -13.33661 -0.47417 -0.47296 -27.60278 -13.99289 0.94631 39.43349 92.04935 5.19284 0.96636 -22.64663 15.75913 -4.26595 44.01809 -150.55721 23.37175 -9.27654 35.04955 -2.73707 -4.94 -21.82635 -9.86585 -5.47646 -3.73991 35.80831 10.12514 2.3159 -27.29508 -8.44061 4.57527 3.16295
0.00953 0.00165 0.00905 24.58869 -19.90786 -8.47052 42.91749 1.02958 -5.58052 -13.36284 -0.21902 -0.47391 -27.00286 -13.97881 1.17742 39.3918 91.95073 5.17922 0.95166 -22.36845 16.03255 -4.70173 44.4388 -144.00753 21.64187 -8.25368 34.92636 -2.42397 -5.4364 -21.81512 -9.7328 -5.44186 -3.71406 35.7491 10.51419 2.21089 -27.15913 -8.53451 4.56435 3.16176
0.01176 0.00195 0.01241 24.67889 -19.90121 -8.44339 42.95023 1.0008 -5.50113 -13.38888 0.0353 -0.47485 -26.40288 -13.96479 1.40864 39.35138 91.85254 5.16577 0.93694 -22.08993 16.30727 -5.13896 44.86119 -137.43689 19.90616 -7.2276 34.80318 -2.11031 -5.93391 -21.80379 -9.59947 -5.40716 -3.68814 35.68958 10.90413 2.10652 -27.02224 -8.62848 4.55337 3.16054
0.01398 0.00224 0.01576 24.77032 -19.89315 -8.4164 42.98017 0.97181 -5.42122 -13.41599 0.29556 -0.47583 -25.79954 -13.95029 1.64063 39.30409 91.75405 5.15189 0.92259 -21.8119 16.57707 -5.57144 45.27778 -130.93292 18.18955 -6.21166 34.67921 -1.79772 -6.4288 -21.79288 -9.46678 -5.37271 -3.66237 35.63145 11.29189 1.99843 -26.88948 -8.72249 4.54255 3.15941
0.01622 0.00255 0.01912 24.85929 -19.88795 -8.3892 43.01572 0.94328 -5.34257 -13.44094 0.54337 -0.47673 -25.2038 -13.93685 1.87081 39.27088 91.65452 5.13851 0.90723 -21.53291 16.85647 -6.01301 45.70547 -124.30239 16.43653 -5.17651 34.55698 -1.48326 -6.92838 -21.78115 -9.33295 -5.33781 -3.63633 35.57045 11.68359 1.89789 -26.7484 -8.8164 4.53147 3.15814
0.01844 0.00284 0.02247 24.95031 -19.88011 -8.36212 43.0461 0.91433 -5.26253 -13.46785 0.80303 -0.47771 -24.60073 -13.92229 2.10266 39.2243 91.55916 5.12539 0.89334 -21.2553 17.12702 -6.44617 46.1231 -117.78781 14.71684 -4.15894 34.43314 -1.17066 -7.42368 -21.77015 -9.20015 -5.30331 -3.61053 35.51235 12.07168 1.79049 -26.6153 -8.91025 4.52053 3.15693
0.02063 0.00313 0.02581 25.04478 -19.869 -8.33546 43.07008 0.88481 -5.18161 -13.49733 1.07602 -0.47877 -23.98946 -13.90689 2.33671 39.1627 91.45609 5.10971 0.87912 -20.97727 17.38681 -6.86933 46.52788 -111.41531 13.0382 -3.16298 34.30723 -0.85961 -7.91383 -21.76014 -9.06862 -5.26936 -3.58507 35.45681 12.4555 1.67412 -26.49076 -9.00468 4.51016 3.15607
0.02298 0.00347 0.02924 25.12225 -19.87659 -8.30722 43.13066 0.85842 -5.10824 -13.51252 1.26889 -0.47933 -23.42761 -13.89793 2.55858 39.19149 91.35887 5.10012 0.86038 -20.69532 17.70866 -7.3509 47.00495 -104.22622 11.12429 -2.043 34.19291 -0.53745 -8.4339 -21.74473 -8.9298 -5.23243 -3.55779 35.38356 12.86433 1.60759 -26.31337 -9.09778 4.4977 3.15402
0.02499 0.0037 0.03246 25.23374 -19.84482 -8.28176 43.11418 0.82553 -5.01739 -13.55755 1.63282 -0.48094 -22.76026 -13.87437 2.80581 39.02714 91.27394 5.08318 0.85528 -20.42571 17.89951 -7.70862 47.33052 -98.75985 9.70625 -1.18457 34.05438 -0.24017 -8.89057 -21.7405 -8.80639 -5.20164 -3.53428 35.34956 13.22006 1.43709 -26.24974 -9.19238 4.48888 3.15397
0.02607 0.00367 0.03519 25.45396 -19.70366 -8.2685 42.88322 0.77374 -4.89077 -13.68786 2.45389 -0.48556 -21.81049 -13.81853 3.12657 38.34861 91.01707 4.99947 0.85378 -20.15762 17.72914 -7.73025 47.22806 -98.06308 9.66442 -1.05092 33.84712 -2e-05 -9.17324 -21.76924 -8.72538 -5.18915 -3.52188 35.40871 13.43133 0.96822 -26.48094 -9.30211 4.49657 3.16377
0.02679 0.00355 0.0377 25.70495 -19.52349 -8.25713 42.57573 0.71574 -4.74448 -13.84744 3.44834 -0.49121 -20.75378 -13.74651 3.47225 37.47416 90.80799 4.91616 0.8718 -19.90863 17.42845 -7.62816 46.97593 -99.08554 10.11652 -1.17808 33.6163 0.21303 -9.39164 -21.80883 -8.65983 -5.18257 -3.51314 35.50982 13.58899 0.39712 -26.8282 -9.41144 4.50673 3.17483
0.02767 0.00347 0.04026 25.93247 -19.36178 -8.24196 42.30489 0.6611 -4.59904 -13.99154 4.37233 -0.49631 -19.74095 -13.67695 3.80375 36.67784 90.71478 4.8642 0.90354 -19.67107 17.18742 -7.57856 46.80007 -99.29704 10.33391 -1.18193 33.39731 0.43126 -9.64032 -21.84192 -8.58707 -5.17235 -3.50223 35.60139 13.77043 -0.1184 -27.13547 -9.51366 4.51144 3.18244
0.0286 0.00338 0.04302 26.20227 -19.19592 -8.23942 42.02486 0.60365 -4.48712 -14.14522 5.26424 -0.50175 -18.74645 -13.62838 4.14666 35.92328 90.05185 4.68266 0.84176 -19.34563 16.94065 -7.53902 46.58828 -99.64837 10.60014 -1.20864 33.17214 0.67979 -9.88697 -21.88147 -8.51501 -5.16615 -3.49344 35.65341 13.95448 -0.67171 -27.39488 -9.64622 4.53429 3.20204
0.02932 0.0033 0.0453 26.3886 -19.0307 -8.21077 41.74728 0.55123 -4.30149 -14.28548 6.26059 -0.50672 -17.69014 -13.53179 4.47259 35.04019 90.57304 4.76669 0.97713 -19.21152 16.6795 -7.45601 46.41684 -100.10195 10.87595 -1.24686 32.95603 0.85851 -10.11934 -21.91037 -8.44531 -5.153 -3.48112 35.79703 14.12007 -1.17169 -27.77424 -9.71605 4.52014 3.19713
0.02954 0.00329 0.04637 26.35966 -18.86619 -8.11177 41.48293 0.50885 -3.91121 -14.38497 7.53178 -0.51021 -16.47587 -13.31038 4.73766 33.81007 94.46822 5.62146 1.67087 -19.56895 16.37038 -7.22195 46.38481 -100.5485 11.11174 -1.27829 32.75534 0.85332 -10.3569 -21.90517 -8.37709 -5.11882 -3.45787 36.18949 14.25066 -1.48758 -28.51907 -9.60783 4.40128 3.12278
0.02957 0.00331 0.04694 26.24131 -18.70558 -7.98614 41.22588 0.47279 -3.44894 -14.46935 8.89632 -0.51317 -15.20618 -13.04037 4.98616 32.46563 99.52927 6.73616 2.5584 -20.12423 16.05767 -6.95753 46.39964 -101.02565 11.33447 -1.30956 32.56735 0.77826 -10.57745 -21.88924 -8.31091 -5.07745 -3.43094 36.67151 14.36398 -1.74742 -29.36957 -9.43744 4.24547 3.02399
0.02968 0.00332 0.04771 26.1491 -18.55027 -7.87108 40.97371 0.43731 -3.02303 -14.55827 10.19953 -0.51632 -13.97006 -12.79026 5.24745 31.19897 103.98367 7.70765 3.34542 -20.60998 15.77441 -6.75028 46.39943 -101.38672 11.52146 -1.32169 32.38378 0.73396 -10.7862 -21.87957 -8.24464 -5.03971 -3.40591 37.10851 14.48342 -2.04194 -30.12962 -9.29873 4.10783 2.93734
0.02977 0.00332 0.04862 26.11956 -18.3641 -7.76201 40.68479 0.38687 -2.57946 -14.65775 11.58995 -0.5197 -12.69263 -12.54929 5.48764 29.8135 108.77428 8.78633 4.18739 -21.01041 15.37387 -6.36536 46.36992 -102.18942 11.88253 -1.41562 32.15683 0.69352 -11.07305 -21.86451 -8.17549 -5.0009 -3.38018 37.56528 14.60846 -2.30535 -31.06991 -9.14544 3.96442 2.84636
0.02987 0.00334 0.0491 25.93732 -18.24315 -7.6348 40.47447 0.3694 -2.15785 -14.73163 12.81694 -0.52246 -11.49218 -12.27736 5.76721 28.65457 113.12798 9.70187 4.95849 -21.63518 15.21256 -6.33263 46.41159 -102.11959 11.89545 -1.34628 32.02296 0.62801 -11.19669 -21.85791 -8.1125 -4.96221 -3.35483 38.00153 14.71822 -2.61366 -31.66208 -9.00789 3.82427 2.75861
0.03009 0.00341 0.0486 25.35951 -18.30576 -7.45818 40.48568 0.43929 -1.79723 -14.73537 13.58281 -0.52362 -10.49598 -11.93694 6.16169 28.1186 116.10098 10.11712 5.50507 -22.83145 15.76446 -7.38679 46.66407 -99.07454 10.73699 -0.73227 32.14849 0.51722 -10.85062 -21.87774 -8.06703 -4.92837 -3.33289 38.3586 14.79143 -3.10501 -31.23452 -8.92784 3.70206 2.68557
0.03031 0.00348 0.04766 24.63011 -18.43328 -7.26527 40.57505 0.54247 -1.4645 -14.7144 14.17738 -0.52416 -9.58424 -11.56624 6.59554 27.82105 118.57383 10.35682 5.97014 -24.24588 16.54863 -8.7777 46.98249 -95.23567 9.26214 0.03146 32.3664 0.38235 -10.34516 -21.90623 -8.02754 -4.89442 -3.31122 38.69123 14.8494 -3.63514 -30.45849 -8.86595 3.58469 2.61681
0.03052 0.00355 0.04687 23.96729 -18.52831 -7.08366 40.62479 0.63198 -1.13044 -14.70654 14.8413 -0.52498 -8.64811 -11.20602 7.0102 27.43563 121.20168 10.66757 6.46009 -25.56086 17.19271 -9.94415 47.2546 -92.1308 8.07432 0.66431 32.53847 0.25427 -9.92865 -21.93049 -7.98445 -4.85863 -3.28842 39.03597 14.91429 -4.11641 -29.86282 -8.79658 3.46484 2.54603
0.03078 0.00364 0.04627 23.31141 -18.63588 -6.88478 40.69167 0.71597 -0.74606 -14.68984 15.54563 -0.5258 -7.64899 -10.85764 7.43097 26.96046 124.17239 11.02347 7.00779 -26.88659 17.98079 -11.40852 47.59729 -87.49456 6.2972 1.55556 32.72704 0.14171 -9.44328 -21.95591 -7.94473 -4.83036 -3.26961 39.38206 14.98051 -4.72496 -29.17804 -8.72197 3.34377 2.47407
0.03093 0.00368 0.04517 22.60591 -18.73293 -6.71823 40.74185 0.81873 -0.47391 -14.68637 16.12241 -0.52647 -6.80427 -10.47841 7.84708 26.72931 126.29888 11.24122 7.41377 -28.23595 18.52615 -12.33585 47.80796 -85.80583 5.65291 1.95265 32.9033 -0.00853 -9.06183 -21.98074 -7.89991 -4.78674 -3.24277 39.71534 15.03812 -5.08171 -28.59473 -8.66315 3.22826 2.40669
0.03074 0.00358 0.04288 21.80371 -18.78315 -6.6458 40.72211 0.96961 -0.50634 -14.72146 16.39985 -0.52688 -6.34566 -10.01881 8.25192 27.12335 126.17667 11.11071 7.44342 -29.62203 18.32824 -11.67232 47.63813 -92.8992 8.37995 0.87639 33.02082 -0.25245 -9.02308 -22.00563 -7.83512 -4.69859 -3.19233 40.04463 15.09624 -4.70555 -28.37589 -8.646 3.11517 2.34446
0.03043 0.00342 0.0401 20.95678 -18.82079 -6.60628 40.68354 1.13716 -0.65067 -14.77156 16.55187 -0.52717 -6.04375 -9.53012 8.64759 27.75325 125.22378 10.84765 7.33324 -31.01758 17.88161 -10.4624 47.33258 -102.8989 12.22553 -0.68853 33.12327 -0.53425 -9.09166 -22.02928 -7.76586 -4.5954 -3.13407 40.35667 15.1421 -4.08089 -28.27074 -8.64402 3.00986 2.28801
0.03018 0.00329 0.03749 20.12851 -18.86551 -6.55151 40.65684 1.29442 -0.74335 -14.81752 16.75415 -0.52752 -5.6829 -9.05647 9.04157 28.26976 124.67137 10.65045 7.28926 -32.39294 17.55888 -9.5186 47.08922 -111.27741 15.45224 -1.98281 33.23377 -0.80093 -9.09985 -22.05072 -7.70148 -4.50056 -3.08036 40.6595 15.18067 -3.58776 -28.11372 -8.63367 2.90889 2.23328
0.02993 0.00314 0.03505 19.30145 -18.90709 -6.49811 40.61956 1.4652 -0.84097 -14.85128 16.98067 -0.52784 -5.27201 -8.57329 9.46617 28.82183 124.00493 10.42391 7.23114 -33.84778 17.19632 -8.50824 46.84732 -120.90968 19.1408 -3.47824 33.34174 -1.05848 -9.15033 -22.08296 -7.62508 -4.39941 -3.02254 41.03357 15.27455 -3.01442 -27.94578 -8.62989 2.77488 2.16035
0.02965 0.00302 0.03216 18.46386 -18.95095 -6.449 40.59796 1.61022 -0.95369 -14.91434 17.12699 -0.52819 -5.00287 -8.10438 9.81865 29.35131 123.38554 10.22883 7.17057 -35.1306 16.85718 -7.50628 46.56765 -128.61449 22.12935 -4.67101 33.45107 -1.34522 -9.14174 -22.09381 -7.57283 -4.30772 -2.97133 41.25541 15.24857 -2.55243 -27.83173 -8.61615 2.71139 2.1266
0.02937 0.00295 0.02817 17.60344 -19.00721 -6.41138 40.63112 1.68946 -1.08817 -15.05469 17.10129 -0.52861 -5.07441 -7.67516 10.02394 29.77221 123.09516 10.15719 7.1351 -35.98335 16.62021 -6.62455 46.2301 -130.43631 22.98119 -4.92428 33.56112 -1.68985 -8.93198 -22.03506 -7.5863 -4.24697 -2.94113 41.06128 14.91186 -2.42439 -27.84349 -8.56794 2.84133 2.20012
0.02906 0.00291 0.02374 16.73563 -19.06513 -6.37571 40.67878 1.74025 -1.23257 -15.22402 16.99652 -0.52908 -5.28477 -7.26327 10.14859 30.15897 122.88347 10.12187 7.10272 -36.65177 16.41831 -5.77439 45.85616 -130.19827 23.07992 -4.85454 33.67464 -2.06468 -8.66196 -21.95831 -7.62466 -4.19613 -2.91775 40.71455 14.45227 -2.422 -27.90642 -8.50965 3.04171 2.31268
